<?xml version="1.0" standalone="no"?>
<!DOCTYPE svg PUBLIC "-//W3C//DTD SVG 20010904//EN"
 "http://www.w3.org/TR/2001/REC-SVG-20010904/DTD/svg10.dtd">
<svg version="1.0" xmlns="http://www.w3.org/2000/svg"
 width="300.000000pt" height="170.000000pt" viewBox="0 0 300.000000 170.000000"
 preserveAspectRatio="xMidYMid meet">
<metadata>
Created by potrace 1.10, written by Peter Selinger 2001-2011
</metadata>
<g transform="translate(0.000000,170.000000) scale(0.100000,-0.100000)"
fill="#ff2600" stroke="none">
<path d="M1198 1358 c-10 -10 -18 -29 -18 -43 0 -21 -5 -25 -28 -25 -37 0 -52
-17 -52 -57 0 -31 -2 -33 -34 -33 -36 0 -49 -11 -51 -42 -2 -23 -10 -31 -34
-33 -45 -3 -51 -20 -51 -154 0 -129 6 -151 40 -151 24 0 43 -16 45 -38 2 -31
25 -52 56 -52 25 0 29 -4 29 -29 0 -28 12 -44 35 -47 6 0 17 -2 25 -2 9 -1 17
-13 18 -29 3 -35 29 -63 59 -63 17 0 23 -6 23 -23 0 -28 17 -47 43 -47 10 0
16 -4 13 -9 -4 -5 2 -7 12 -4 13 3 18 -2 20 -24 2 -31 34 -63 63 -63 13 0 19
-7 19 -23 0 -35 19 -47 71 -47 51 0 63 9 63 50 1 21 6 26 33 28 38 4 52 18 55
59 2 28 4 30 21 21 14 -7 17 -7 13 1 -4 7 1 11 12 11 22 0 32 18 32 55 0 19 4
23 21 20 30 -6 59 12 59 35 0 26 37 63 55 56 17 -6 26 6 35 48 5 27 10 31 33
28 23 -3 30 2 43 33 8 20 13 39 10 43 -2 4 10 8 27 9 50 4 57 23 57 153 0 129
-7 149 -56 153 -26 2 -30 6 -32 32 -3 37 -10 44 -48 47 -26 2 -30 6 -32 32 -3
41 -19 56 -56 56 -28 0 -31 3 -33 32 -1 17 -6 35 -11 40 -5 5 -48 8 -97 6
l-87 -3 -12 -35 c-8 -27 -17 -36 -38 -38 -33 -4 -47 -20 -50 -58 -3 -41 -33
-41 -36 0 -3 33 -19 57 -36 55 -35 -4 -45 3 -52 37 -8 42 -7 42 -104 46 -61 3
-77 1 -92 -14z m182 -51 l0 -43 40 3 40 3 0 -45 0 -45 40 0 40 0 0 45 0 45 43
0 43 0 -4 40 -4 40 92 0 92 0 -4 -42 -3 -42 43 3 42 3 0 -46 0 -46 40 0 c40 0
40 0 40 -40 l0 -40 45 0 45 0 0 -130 0 -130 -45 0 -45 0 0 -40 c0 -40 0 -40
-39 -40 -40 0 -40 0 -43 -42 -3 -41 -3 -42 -43 -42 -40 -1 -40 -1 -40 -41 0
-40 0 -40 -42 -43 -43 -3 -43 -3 -43 -43 0 -39 0 -39 -40 -39 l-40 0 0 -45 0
-45 -46 0 -47 0 6 -40 5 -40 -50 0 -51 0 6 40 5 40 -44 0 -44 0 0 45 0 45 -43
0 -43 0 4 40 4 40 -46 0 -46 0 0 46 0 46 -40 -4 -40 -4 0 43 0 43 -46 0 -47 0
6 40 5 40 -44 0 -44 0 0 130 0 130 44 0 44 0 -5 40 -6 40 47 0 46 0 0 44 0 45
85 0 85 0 0 -129 0 -130 -128 0 -128 0 4 35 c3 21 0 35 -7 35 -7 0 -10 -25 -9
-72 0 -40 3 -58 5 -40 l4 32 90 0 89 0 2 -32 1 -33 4 31 c3 27 8 31 34 32 52
1 56 11 57 142 1 116 0 121 -23 136 -16 11 -34 14 -55 9 -29 -6 -30 -5 -30 29
l0 36 90 0 90 0 0 -43z"/>
<path d="M1668 1253 c7 -3 16 -2 19 1 4 3 -2 6 -13 5 -11 0 -14 -3 -6 -6z"/>
<path d="M1180 1226 c-6 -16 -17 -26 -30 -26 -11 0 -20 -4 -20 -10 0 -5 18
-10 40 -10 l40 0 0 -41 c0 -22 4 -38 9 -35 5 3 7 15 4 26 -4 14 3 23 28 34
l34 14 -37 1 c-35 1 -38 3 -38 30 0 39 -18 49 -30 17z"/>
<path d="M1105 1155 c-3 -8 -7 -22 -10 -31 -3 -8 -8 -13 -13 -10 -4 2 -14 1
-22 -5 -11 -6 -4 -9 23 -9 36 0 37 1 37 35 0 36 -7 46 -15 20z"/>
<path d="M1860 1075 c0 -32 -2 -35 -30 -35 -45 0 -63 -27 -64 -101 l-1 -63
-34 -7 c-38 -8 -51 -23 -51 -59 0 -20 -5 -25 -25 -26 -36 -3 -55 -22 -55 -55
0 -24 -4 -29 -24 -29 -33 0 -57 -10 -50 -21 3 -5 0 -9 -5 -9 -6 0 -10 -3 -10
-7 5 -29 -3 -43 -23 -43 -49 0 -52 -11 -49 -142 1 -21 6 -38 11 -38 6 0 10 33
10 78 l0 78 40 -4 c38 -4 40 -6 40 -39 0 -20 4 -32 10 -28 6 3 10 17 10 31 0
22 4 25 32 22 27 -2 34 -8 39 -33 5 -24 7 -25 8 -7 1 16 11 27 34 37 l32 14
-35 1 c-19 1 -56 1 -82 0 l-48 -1 0 45 0 46 45 0 45 0 1 -37 c1 -33 2 -34 8
-13 4 15 15 26 29 28 33 5 26 20 -10 24 -30 3 -33 6 -36 41 l-3 37 45 0 45 0
3 -82 c3 -68 5 -77 12 -50 7 25 14 32 33 32 14 0 21 4 18 10 -3 6 -18 10 -32
10 -21 0 -24 3 -19 23 3 12 6 27 6 34 0 6 12 14 28 16 22 3 20 4 -10 6 l-38 1
0 46 0 45 38 -3 c33 -3 37 -6 40 -33 4 -39 22 -58 22 -24 0 18 8 28 28 36 27
11 27 11 -10 12 l-38 1 0 88 0 87 45 -3 45 -4 0 -75 c0 -41 4 -72 9 -69 11 7
5 125 -9 161 -6 14 -10 37 -10 50 0 21 5 24 43 28 l42 4 -47 1 -48 2 0 -35z"/>
<path d="M1135 1091 c-7 -12 22 -18 53 -13 18 4 20 7 10 13 -18 12 -55 11 -63
0z"/>
<path d="M1960 977 c0 -69 4 -116 9 -112 12 7 12 197 0 216 -5 9 -9 -30 -9
-104z"/>
<path d="M1088 913 c6 -2 18 -2 25 0 6 3 1 5 -13 5 -14 0 -19 -2 -12 -5z"/>
<path d="M1876 841 c-1 -3 0 -22 4 -41 l5 -35 12 32 c8 21 19 33 35 35 17 3
13 5 -15 9 -21 3 -39 3 -41 0z"/>
<path d="M1790 730 c0 -35 17 -41 22 -7 2 15 10 22 26 23 41 2 36 14 -6 14
-40 0 -42 -1 -42 -30z"/>
<path d="M1475 500 c3 -5 15 -10 25 -10 10 0 22 5 25 10 4 6 -7 10 -25 10 -18
0 -29 -4 -25 -10z"/>
<path d="M1540 468 c0 -32 3 -39 10 -28 5 8 10 23 10 33 0 9 8 17 18 17 9 0
24 5 32 10 11 7 4 10 -27 10 l-43 0 0 -42z"/>
<path d="M1483 413 c9 -2 25 -2 35 0 9 3 1 5 -18 5 -19 0 -27 -2 -17 -5z"/>
</g>
</svg>
